<?xml version="1.0" encoding="UTF-8"?>
<svg version="1.1" xmlns="http://www.w3.org/2000/svg" width="1024" height="1024">
<path d="M0 0 C337.92 0 675.84 0 1024 0 C1024 337.92 1024 675.84 1024 1024 C686.08 1024 348.16 1024 0 1024 C0 686.08 0 348.16 0 0 Z " fill="#FD635B" transform="translate(0,0)"/>
<path d="M0 0 C337.92 0 675.84 0 1024 0 C1024 337.92 1024 675.84 1024 1024 C686.08 1024 348.16 1024 0 1024 C0 686.08 0 348.16 0 0 Z M181.4375 87.75 C180.10900024 88.14469482 180.10900024 88.14469482 178.75366211 88.54736328 C161.07162572 93.91835181 145.62657798 101.63577546 131 113 C130.09636719 113.69867188 129.19273437 114.39734375 128.26171875 115.1171875 C96.55774734 140.31892998 79.58920023 175.20385027 75 215 C74.3752406 223.38887451 74.45689294 231.79254451 74.49206543 240.19921875 C74.4874439 242.64471302 74.48108267 245.09020451 74.47315645 247.53569031 C74.46004498 252.80523576 74.45905154 258.07463167 74.46934509 263.34417725 C74.48461077 271.18077121 74.47667054 279.01722889 74.46451186 286.85382223 C74.44354934 300.85805776 74.44523414 314.86221988 74.45682751 328.86646223 C74.46692272 341.12240843 74.46950124 353.37832784 74.46473694 365.63427734 C74.4644314 366.44986189 74.46412586 367.26544644 74.46381106 368.10574567 C74.46256554 371.41715717 74.46129192 374.72856865 74.459972 378.03998011 C74.44775873 409.05115428 74.4587937 440.06228192 74.48035959 471.0734489 C74.49933949 498.57503252 74.49764087 526.07654203 74.47851562 553.578125 C74.45705862 584.53557978 74.44862517 615.49299352 74.46096468 646.45045471 C74.46224739 649.75554402 74.46349876 653.06063333 74.46473694 656.36572266 C74.46505325 657.17941358 74.46536956 657.9931045 74.46569545 658.83145273 C74.47022949 671.07433268 74.46495396 683.31718279 74.45481873 695.56005859 C74.44334185 709.49233734 74.44632543 723.42453174 74.4679417 737.35680008 C74.47961752 745.13707372 74.48055501 752.91716435 74.465357 760.69743294 C74.45522686 766.53075466 74.46634865 772.3638908 74.4852553 778.19718361 C74.48968039 780.53873223 74.48754883 782.88030569 74.47775215 785.221838 C74.36367353 814.78292228 79.67764633 841.98045318 94 868 C94.86431641 869.61648438 94.86431641 869.61648438 95.74609375 871.265625 C99.77182445 878.51751865 104.53043671 884.77954503 110 891 C110.45004395 891.5170752 110.90008789 892.03415039 111.36376953 892.56689453 C134.49153648 918.99976318 166.67058124 938.0450464 202 942 C210.34021767 942.53549587 218.70833108 942.41022323 227.06134033 942.38768005 C229.58940039 942.39185802 232.11745857 942.39733806 234.6455133 942.40399987 C240.12012982 942.41541125 245.59462736 942.41760487 251.06925011 942.41144943 C259.21069614 942.40232022 267.3520635 942.4104209 275.49350352 942.42174067 C290.03926137 942.44136739 304.58498351 942.44376263 319.13075144 942.43854547 C331.86278435 942.43398134 344.59480317 942.43459614 357.32683563 942.44038582 C359.03729436 942.4411427 360.74775309 942.44189868 362.45821182 942.44265376 C365.03599793 942.44379901 367.61378403 942.44494889 370.19157012 942.44611301 C394.14560924 942.45681205 418.09964368 942.46154943 442.05368423 942.45364285 C442.95591695 942.45334567 443.85814966 942.4530485 444.78772276 942.45274232 C452.1136142 942.4502936 459.43950559 942.4476819 466.76539696 942.44505819 C495.33304088 942.43495822 523.900626 942.44330884 552.46826172 942.46655273 C584.59610059 942.49265134 616.72390408 942.50546626 648.85175395 942.49836498 C652.28046973 942.49764897 655.70918551 942.49697458 659.13790131 942.49632454 C659.98208008 942.49615473 660.82625886 942.49598492 661.69601882 942.49580997 C674.41380678 942.49351138 687.13156178 942.50146292 699.84934235 942.51461601 C714.32100965 942.52955673 728.79259993 942.5303311 743.26426563 942.5125451 C751.35194703 942.5030131 759.43944857 942.50435314 767.52711779 942.52177979 C773.58250587 942.53357265 779.63767445 942.52421917 785.69305715 942.50695742 C788.13033371 942.50320664 790.56763223 942.50609247 793.00488916 942.51656907 C811.40664586 942.58999774 828.52330782 940.58130326 846.0625 934.8125 C846.96460205 934.51988281 847.8667041 934.22726562 848.79614258 933.92578125 C862.28644911 929.39241492 875.39555259 923.28638302 887 915 C887.98613281 914.3090625 888.97226562 913.618125 889.98828125 912.90625 C920.99004466 890.19433542 940.87315627 856.95232804 946.81938601 819.01664191 C948.89366712 804.69217827 949.43132208 790.6567941 949.39440918 776.20024109 C949.39931091 773.78590975 949.40550658 771.37158076 949.41286707 768.95725566 C949.42575179 763.75267163 949.42955428 758.54816704 949.42490768 753.34357262 C949.41801565 745.60342508 949.42840854 737.86336409 949.44186524 730.12322861 C949.46665714 715.48935619 949.47130005 700.8555205 949.46939927 686.22163042 C949.46802161 674.91566559 949.47186612 663.60971336 949.47932434 652.30375099 C949.48037472 650.67449517 949.48142233 649.04523935 949.4824672 647.41598353 C949.48324622 646.20269379 949.48324622 646.20269379 949.48404097 644.96489315 C949.48456112 644.15448622 949.48508126 643.34407928 949.48561716 642.50911456 C949.48614115 641.6972656 949.48666514 640.88541664 949.48720502 640.04896619 C949.5017693 617.24414714 949.51007915 594.43933269 949.50545502 571.63450909 C949.50528306 570.77640988 949.50511111 569.91831068 949.50493394 569.03420846 C949.50404517 564.68586317 949.50310035 560.33751788 949.50213593 555.9891726 C949.5019449 555.12570784 949.50175387 554.26224309 949.50155704 553.37261273 C949.50116995 551.62648199 949.50077962 549.88035126 949.50038607 548.13422053 C949.49441696 520.96843317 949.50985823 493.80273104 949.54199219 466.63696289 C949.57813557 436.05635213 949.59739304 405.47579538 949.59245348 374.89516193 C949.59198356 371.62934006 949.59157329 368.36351819 949.59120178 365.0976963 C949.5910994 364.29367578 949.59099701 363.48965526 949.59089152 362.66127047 C949.58970098 350.5693539 949.60160726 338.47749608 949.62034607 326.38559532 C949.64166734 312.62132604 949.64534716 298.85717931 949.62604648 285.09290441 C949.61578654 277.40854673 949.61901915 269.72448883 949.64257733 262.0401588 C949.65867204 256.27464748 949.64808997 250.50941388 949.62785631 244.74392686 C949.62370722 242.43259165 949.62774383 240.12122166 949.64145225 237.80992337 C949.88728823 193.27907605 934.72273546 154.19713499 903.3984375 122.35546875 C877.49263296 97.41310323 841.35287405 82.79344482 805.44190121 82.87136555 C803.89371782 82.86873599 803.89371782 82.86873599 802.31425801 82.86605331 C798.85727321 82.86140303 795.40033065 82.86385633 791.94334412 82.86628723 C789.43910073 82.86441877 786.93485764 82.86211792 784.43061501 82.85942191 C778.98648379 82.85457974 773.5423653 82.85284908 768.09823227 82.85387802 C760.00219304 82.85540443 751.90616364 82.85123788 743.81012633 82.8460034 C728.50739562 82.83633579 713.20466826 82.83351936 697.90193485 82.83294634 C686.08210966 82.83248663 674.26228578 82.83042742 662.44246101 82.82724571 C659.03893807 82.82634815 655.63541512 82.82545834 652.23189217 82.82457083 C651.38573722 82.82434979 650.53958228 82.82412874 649.66778627 82.82390099 C625.86843895 82.81774721 602.06909208 82.81380038 578.26974392 82.81424427 C576.92397182 82.81426764 576.92397182 82.81426764 575.55101241 82.81429148 C571.00383529 82.81437458 566.45665816 82.81447363 561.90948104 82.81457619 C560.55488039 82.8146061 560.55488039 82.8146061 559.17291407 82.81463663 C557.3466916 82.81467706 555.52046914 82.81471886 553.69424667 82.81476202 C525.28891649 82.81537461 496.88359825 82.80787106 468.47827148 82.79418945 C436.55598623 82.77882017 404.63370883 82.77022376 372.71141964 82.77115268 C369.30569621 82.7712273 365.89997278 82.77127601 362.49424934 82.77130699 C361.23641201 82.77132447 361.23641201 82.77132447 359.95316383 82.77134231 C346.47330364 82.77137305 332.99345383 82.76499398 319.51359673 82.75637473 C305.95878323 82.74788699 292.40398489 82.74691705 278.8491702 82.75348405 C270.80294448 82.75717235 262.75676488 82.75536891 254.71054408 82.74554171 C248.69285135 82.73881491 242.67521262 82.74261468 236.65751923 82.75041493 C234.23019767 82.75194961 231.80287108 82.75013497 229.37555545 82.74455485 C213.0409356 82.70950284 197.20019696 82.94944953 181.4375 87.75 Z " fill="#FBF4EE" transform="translate(0,0)"/>
<path d="M0 0 C1.21424652 -0.00838898 2.42849304 -0.01677795 3.67953491 -0.02542114 C5.02194535 -0.01445487 6.36435257 -0.00308893 7.70675659 0.00863647 C9.1228063 0.00649022 10.53885429 0.00261195 11.95489502 -0.00286865 C15.79781873 -0.01256055 19.64027772 0.00273765 23.48314524 0.02303743 C27.50208414 0.04060204 31.52100857 0.03708351 35.53997803 0.03631592 C42.28705629 0.03818872 49.03395459 0.05555203 55.78097534 0.08285522 C63.58816874 0.11433131 71.39516522 0.12485054 79.20241749 0.12338412 C86.70745084 0.12216472 94.21241989 0.13236333 101.71743393 0.14896774 C104.9143715 0.15603938 108.11128634 0.15969508 111.30823135 0.16075516 C115.06915911 0.16275988 118.82992066 0.17493525 122.59079361 0.19508743 C123.97352074 0.20094308 125.356267 0.20338703 126.73900604 0.20223236 C128.62110659 0.2012552 130.50319998 0.21376783 132.38525391 0.22705078 C133.44012056 0.23040247 134.49498722 0.23375416 135.58181953 0.23720741 C138.06564331 0.49447632 138.06564331 0.49447632 140.06564331 2.49447632 C140.32045233 5.42951357 140.32045233 5.42951357 140.32735634 9.28425026 C140.3313524 9.99398652 140.33534846 10.70372278 140.33946562 11.43496621 C140.35052287 13.83732825 140.34722705 16.23946314 140.34411621 18.6418457 C140.34911438 20.37186584 140.35498875 22.10188363 140.36166894 23.83189809 C140.37754097 28.60465066 140.38090356 33.37734448 140.38231754 38.15012026 C140.38599909 43.2898913 140.40114824 48.42962964 140.41493225 53.56938171 C140.43724823 62.48059372 140.45223537 71.39179417 140.46229935 80.30302811 C140.47686082 93.18730605 140.50239044 106.07154371 140.53063063 118.95579807 C140.57614478 139.85767757 140.61274043 160.75956286 140.64376831 181.66146851 C140.67393495 201.97039812 140.70827652 222.27931356 140.7482605 242.58822632 C140.75195282 244.46476487 140.75195282 244.46476487 140.75571974 246.37921329 C140.76809397 252.65499801 140.78055057 258.93078257 140.79304814 265.20656705 C140.89668513 317.30251704 140.9858655 369.3984847 141.06564331 421.49447632 C142.79453198 421.49944154 142.79453198 421.49944154 144.5583477 421.50450706 C171.89638711 421.58346317 199.23437712 421.67265953 226.5723412 421.77452793 C229.93452886 421.78704734 233.29671684 421.79948003 236.65890503 421.81185913 C237.66296466 421.81555812 237.66296466 421.81555812 238.68730833 421.81933184 C249.53677494 421.85909467 260.38625201 421.89182637 271.23574911 421.92197613 C282.36189086 421.95305055 293.48799119 421.99179174 304.61408436 422.03726637 C310.8661531 422.06257509 317.11819011 422.08434334 323.37029648 422.09782028 C329.24875522 422.11060109 335.12710543 422.13261203 341.00550461 422.16185951 C343.16870454 422.17096657 345.33192196 422.17663275 347.49514008 422.17868996 C350.43729434 422.18199051 353.37913669 422.19740748 356.32122803 422.21600342 C357.18697476 422.21406868 358.0527215 422.21213395 358.94470298 422.21014059 C364.83740089 422.2662339 364.83740089 422.2662339 367.06564331 424.49447632 C367.3201189 426.65592194 367.3201189 426.65592194 367.32633972 429.39108276 C367.33342453 430.42588272 367.34050934 431.46068268 367.34780884 432.52684021 C367.34533142 433.66664841 367.342854 434.8064566 367.34030151 435.98080444 C367.34796791 437.77595741 367.34796791 437.77595741 367.35578918 439.6073761 C367.36733077 442.89456016 367.36975517 446.18149257 367.36722589 449.46867943 C367.36615803 452.2099178 367.37103468 454.95113276 367.37583131 457.69236612 C367.38693495 464.1571823 367.38735889 470.62194037 367.38131714 477.08676147 C367.37527342 483.76355518 367.38759635 490.44013837 367.40888721 497.11689615 C367.42647892 502.84347331 367.43250849 508.56998331 367.42924947 514.29658651 C367.42743279 517.71946528 367.4301108 521.14219383 367.443964 524.56504822 C367.45882393 528.37949962 367.44959355 532.19368093 367.43795776 536.00814819 C367.4456015 537.14795639 367.45324524 538.28776459 367.46112061 539.46211243 C367.45410629 540.49691238 367.44709198 541.53171234 367.43986511 542.59786987 C367.44011672 543.95177448 367.44011672 543.95177448 367.44037342 545.3330307 C367.31671248 546.04630775 367.19305155 546.75958481 367.06564331 547.49447632 C363.53850513 549.84590177 362.10589729 549.74572148 357.92924595 549.74895191 C356.63688324 549.75478411 355.34452052 549.7606163 354.0129953 549.76662523 C352.57038486 549.76299167 351.12777489 549.75916727 349.68516541 549.75517273 C348.15924897 549.75819136 346.63333404 549.76207938 345.10742182 549.7667653 C340.90331411 549.77709127 336.69929125 549.77485184 332.49517643 549.7705847 C327.96544852 549.76812579 323.43574148 549.77712121 318.90602112 549.78462219 C310.02766813 549.79739446 301.14934535 549.79915975 292.27098472 549.79682193 C285.05712742 549.79504146 277.84327933 549.79678258 270.62942314 549.80104637 C269.0914397 549.80193915 269.0914397 549.80193915 267.52238588 549.80284997 C265.4396834 549.80406168 263.35698093 549.80527581 261.27427845 549.80649235 C241.72724813 549.81737759 222.18023504 549.81520072 202.63320374 549.8091075 C184.73672977 549.80393724 166.84031021 549.81519495 148.94384701 549.83420572 C130.58328607 549.85356052 112.22275091 549.86184429 93.8621797 549.85808247 C83.54788799 549.85616687 73.23364261 549.85869287 62.91935921 549.87279701 C54.13897701 549.88468176 45.35866965 549.88614847 36.57828648 549.87400685 C32.09580661 549.8680977 27.61346381 549.8670746 23.13099289 549.87900925 C19.03089467 549.88979924 14.93104912 549.88684753 10.83096307 549.87274756 C9.34445051 549.87008152 7.85791858 549.87252642 6.37142492 549.88048343 C4.35693206 549.89052173 2.3423685 549.8804171 0.32788181 549.86920643 C-1.3533588 549.86928895 -1.3533588 549.86928895 -3.06856388 549.86937314 C-6.45325814 549.42659475 -7.77259922 549.16754731 -9.93435669 546.49447632 C-10.3334426 543.43539741 -10.47104443 540.73400015 -10.43772125 537.67189121 C-10.44353502 536.75452953 -10.44934878 535.83716784 -10.45533872 534.89200732 C-10.47004556 531.78914849 -10.4560037 528.68706754 -10.44229126 525.58421326 C-10.44689595 523.34882892 -10.45324594 521.11344761 -10.46120024 518.87807268 C-10.47797606 512.71283855 -10.46960977 506.54785049 -10.45725536 500.38261521 C-10.44916562 494.42366575 -10.45977791 488.46475815 -10.46984483 482.50581826 C-10.49093919 469.56053904 -10.48906971 456.61533862 -10.47752918 443.67005184 C-10.46747874 432.34100975 -10.46483462 421.0119966 -10.46961975 409.68295097 C-10.46992529 408.93233774 -10.47023083 408.1817245 -10.47054563 407.40836541 C-10.47179093 404.36159886 -10.47306452 401.31483232 -10.47438469 398.2680658 C-10.48662934 369.66852201 -10.47551337 341.06902851 -10.4539971 312.46949248 C-10.43501565 287.04590872 -10.43671055 261.62240509 -10.45584106 236.19882202 C-10.4772482 207.65409583 -10.48575912 179.1094141 -10.47339201 150.56468099 C-10.47210909 147.52305982 -10.47085773 144.48143863 -10.46961975 141.43981743 C-10.46930344 140.69085906 -10.46898713 139.94190069 -10.46866124 139.17024662 C-10.46410644 127.84744922 -10.46944161 116.5246839 -10.47953796 105.20189095 C-10.49095831 92.32986483 -10.48815154 79.45793008 -10.46641499 66.58591539 C-10.45568303 60.01336682 -10.45183438 53.4409477 -10.4650116 46.86839676 C-10.47687858 40.85863581 -10.47046724 34.84918982 -10.44910139 28.83945768 C-10.44461106 26.65847092 -10.44695552 24.47745786 -10.45660454 22.29648782 C-10.46866716 19.34490773 -10.45639688 16.39442415 -10.43772125 13.44290257 C-10.45176825 12.15561812 -10.45176825 12.15561812 -10.46609902 10.84232792 C-10.41729836 7.01621366 -10.39140027 5.1155391 -8.07386553 1.9663108 C-5.24262882 0.01861527 -3.42515377 -0.00353519 0 0 Z " fill="#FCF6F0" transform="translate(340.9343566894531,230.50552368164063)"/>
<path d="M0 0 C4.54375821 1.46681619 7.76732236 4.03480164 11.3125 7.125 C11.8799292 7.61202393 12.4473584 8.09904785 13.03198242 8.60083008 C17.56410619 12.52884242 21.8719234 16.64743585 26 21 C23 21 23 21 21.34375 19.56640625 C20.7353125 18.90511719 20.126875 18.24382812 19.5 17.5625 C15.45296699 13.34309336 11.08984322 9.71136119 6.515625 6.078125 C4.19683412 4.1626021 2.08583833 2.1638136 0 0 Z " fill="#FD5B51" transform="translate(886,110)"/>
<path d="M0 0 C3.15943426 2.61278727 4.24684367 5.59381793 5.6875 9.375 C6.12449219 10.49648437 6.56148437 11.61796875 7.01171875 12.7734375 C7.92329817 15.74958215 8.21330789 17.92144829 8 21 C5.73895745 18.73895745 5.40384174 17.47488627 4.5625 14.4375 C3.1752233 9.57495361 1.6300095 4.78598533 0 0 Z " fill="#FC5B52" transform="translate(934,168)"/>
</svg>
